<?xml version="1.0" standalone="no"?>
<!DOCTYPE svg PUBLIC "-//W3C//DTD SVG 20010904//EN"
 "http://www.w3.org/TR/2001/REC-SVG-20010904/DTD/svg10.dtd">
<svg version="1.0" xmlns="http://www.w3.org/2000/svg"
 width="1007.000000pt" height="1007.000000pt" viewBox="0 0 1007.000000 1007.000000"
 preserveAspectRatio="xMidYMid meet">
<metadata>
Created by potrace 1.14, written by Peter Selinger 2001-2017
</metadata>
<g transform="translate(0.000000,1007.000000) scale(0.100000,-0.100000)"
fill="#000000" stroke="none">
<path d="M5170 10015 c-117 -22 -278 -84 -466 -180 -166 -85 -321 -170 -334
-185 -3 -3 -17 -11 -32 -19 -16 -8 -28 -18 -28 -23 0 -4 -5 -8 -11 -8 -9 0
-82 -46 -114 -72 -5 -5 -29 -21 -52 -36 -221 -144 -563 -468 -780 -738 -51
-63 -74 -84 -92 -84 -13 0 -22 -3 -18 -6 7 -7 -22 -39 -35 -39 -5 0 -17 -13
-26 -30 -9 -16 -21 -33 -27 -37 -7 -5 -7 -8 0 -8 6 0 6 -3 0 -8 -16 -11 -43
-57 -98 -162 -52 -99 -84 -150 -102 -162 -5 -4 -7 -8 -2 -8 8 0 -14 -42 -56
-107 -15 -24 -27 -45 -27 -47 0 -2 -22 -40 -48 -83 -61 -99 -152 -261 -157
-283 -1 -3 -4 -12 -7 -20 -30 -88 -30 -87 4 -69 16 9 19 8 16 -3 -12 -34 -229
6 -533 99 -44 14 -90 29 -103 34 -13 5 -44 9 -70 9 -87 0 -151 -64 -137 -139
3 -20 6 -88 5 -151 0 -102 6 -178 40 -505 9 -84 35 -229 50 -280 59 -193 110
-308 168 -376 20 -23 38 -52 39 -63 2 -16 1 -18 -6 -6 -5 8 -8 17 -5 21 2 4
-1 11 -7 15 -7 4 -9 3 -5 -4 3 -6 2 -14 -4 -17 -8 -5 -7 -12 2 -23 10 -12 10
-14 1 -8 -7 4 -13 3 -13 -3 0 -6 -8 -8 -17 -5 -11 3 -9 0 4 -8 23 -14 23 -14
3 -31 -23 -20 -34 -22 -24 -5 4 6 3 8 -4 4 -6 -3 -9 -16 -7 -27 3 -17 1 -19
-10 -9 -11 9 -12 7 -8 -10 4 -16 2 -19 -12 -13 -13 4 -16 3 -11 -5 4 -8 1 -12
-10 -12 -10 0 -15 -3 -11 -6 9 -10 -84 -95 -96 -87 -5 3 -7 2 -4 -4 3 -5 -17
-27 -45 -49 -28 -21 -56 -43 -62 -49 -14 -12 -30 -22 -145 -86 -56 -32 -91
-46 -108 -43 -14 3 -22 1 -19 -5 7 -11 -20 -8 -31 4 -4 4 -2 5 6 0 10 -5 12
-4 7 4 -9 15 -29 3 -23 -13 4 -10 -11 -12 -61 -9 -103 6 -105 6 -132 4 -27 -1
-77 -42 -97 -79 -15 -26 -17 -98 -3 -107 6 -3 10 -13 10 -21 0 -8 8 -33 18
-57 11 -23 29 -69 42 -102 70 -189 200 -406 309 -518 52 -54 143 -122 180
-134 56 -19 111 -49 114 -62 4 -21 -17 -91 -48 -159 -20 -43 -29 -53 -42 -48
-15 5 -14 3 2 -10 14 -11 16 -18 8 -21 -7 -3 -13 -11 -13 -19 0 -8 -4 -14 -10
-14 -5 0 -10 -8 -10 -18 0 -10 -4 -22 -9 -27 -5 -6 -30 -50 -55 -99 -48 -94
-59 -153 -35 -199 27 -53 179 -160 289 -204 14 -6 38 -16 53 -22 15 -6 46 -11
67 -11 22 0 40 -5 40 -11 0 -5 4 -8 9 -4 5 3 13 0 16 -5 4 -6 17 -10 28 -9 43
3 49 0 41 -23 -7 -26 -102 -187 -120 -206 -7 -6 -16 -21 -19 -32 -3 -11 -11
-20 -16 -20 -5 0 -9 -6 -9 -13 0 -7 -9 -23 -20 -35 -11 -12 -20 -23 -20 -26 0
-3 -45 -64 -100 -136 -55 -72 -100 -135 -100 -140 0 -6 -4 -10 -9 -10 -5 0
-28 -26 -52 -57 -24 -32 -51 -67 -61 -78 -34 -36 -116 -160 -149 -225 -29 -56
-34 -77 -37 -153 -3 -59 1 -103 11 -135 12 -39 26 -87 32 -112 0 -3 6 -15 13
-26 6 -12 8 -24 5 -28 -3 -3 0 -6 7 -6 7 0 11 -3 7 -6 -3 -4 1 -13 9 -21 8 -8
12 -19 9 -24 -4 -5 -2 -9 4 -9 11 0 27 -39 22 -55 -1 -5 1 -7 5 -3 3 4 28 -21
54 -55 66 -86 186 -197 215 -197 8 0 15 -4 15 -8 0 -10 127 -78 230 -122 41
-18 113 -50 158 -71 46 -22 87 -39 90 -39 3 0 25 -9 48 -20 23 -12 64 -28 90
-38 46 -16 64 -29 47 -34 -5 -1 -16 -9 -25 -17 -29 -28 -300 -158 -338 -163
-14 -2 -35 -9 -46 -16 -12 -6 -24 -8 -28 -5 -3 3 -6 2 -6 -4 0 -12 -43 -21
-152 -31 -93 -8 -111 -22 -111 -85 0 -39 6 -52 58 -113 31 -38 63 -73 69 -79
15 -12 30 -46 27 -60 -2 -5 0 -7 4 -3 8 7 22 -6 90 -86 74 -88 193 -205 172
-169 -4 6 26 -11 65 -38 40 -27 79 -49 86 -49 21 0 5 -36 -52 -118 -62 -89
-61 -86 -86 -145 -26 -60 -25 -152 1 -178 56 -56 208 -44 369 28 66 30 90 32
90 7 0 -8 7 -14 15 -14 8 0 15 -4 15 -10 0 -5 7 -10 15 -10 8 0 15 -9 15 -21
0 -11 4 -18 9 -14 5 3 12 -4 16 -15 3 -11 11 -20 16 -20 6 0 7 -6 3 -12 -4 -7
-4 -10 0 -6 4 3 31 -11 59 -32 28 -21 75 -49 104 -62 45 -19 53 -27 53 -50 l0
-26 1230 -1 c946 0 1230 3 1230 12 0 9 2 9 8 1 8 -13 236 -18 228 -6 -3 4 4 8
14 8 10 0 17 -3 14 -7 -8 -13 989 -8 1005 5 12 8 13 8 7 -2 -10 -16 25 -13 36
3 5 6 8 5 8 -2 0 -17 52 -17 69 0 11 9 13 9 7 0 -4 -8 -2 -13 6 -13 8 0 20 6
27 13 11 9 13 9 7 0 -4 -7 -3 -13 3 -13 5 0 12 6 14 13 4 10 6 10 6 0 1 -17
33 -17 50 0 11 10 13 9 7 -1 -9 -16 52 -14 73 2 11 8 13 8 8 0 -9 -16 132 -17
152 -1 9 8 12 8 8 1 -9 -16 113 -16 132 0 11 8 13 8 8 -1 -10 -16 125 -15 135
1 5 8 8 7 8 -1 0 -9 57 -12 221 -11 130 0 216 4 208 9 -9 6 -10 9 -2 9 6 0 15
-4 18 -10 7 -12 55 -9 55 3 0 5 -9 5 -21 2 -18 -6 -19 -5 -8 13 7 12 16 19 21
16 16 -10 -20 54 -85 154 -37 56 -67 107 -67 112 0 6 -4 10 -10 10 -5 0 -10 9
-10 20 0 11 -4 20 -8 20 -5 0 -14 16 -22 35 -8 19 -17 35 -22 35 -4 0 -8 4 -8
9 0 5 -19 44 -43 87 -196 356 -315 591 -392 769 -25 61 -53 124 -60 140 -7 17
-15 43 -17 59 -3 26 1 31 27 37 148 35 156 35 138 -4 -6 -12 -16 -38 -23 -57
-7 -19 -19 -49 -26 -67 -19 -43 -18 -67 6 -88 24 -22 121 -27 167 -9 37 15 49
6 59 -45 4 -17 11 -34 15 -37 5 -3 9 -13 9 -23 0 -18 32 -107 51 -143 5 -10 9
-23 9 -28 0 -6 9 -30 20 -52 11 -23 20 -47 20 -53 0 -6 9 -29 19 -51 11 -21
17 -42 14 -46 -2 -5 0 -8 5 -8 5 0 13 -10 17 -22 9 -28 8 -26 27 -68 29 -67
38 -105 35 -155 -1 -34 4 -59 14 -76 21 -31 94 -58 111 -41 7 7 22 12 34 12
13 0 26 5 29 10 3 6 15 10 25 10 17 0 78 27 90 40 3 3 16 13 30 21 68 44 240
228 240 257 0 6 7 13 16 16 12 4 15 2 11 -9 -4 -8 -2 -17 3 -20 25 -15 0 -303
-34 -410 -28 -86 6 -128 104 -126 68 1 178 42 242 91 70 54 150 144 207 235
54 86 114 238 125 317 22 162 25 229 15 318 -27 255 -54 367 -118 499 -16 33
-27 61 -25 61 3 0 -7 12 -21 27 -14 15 -25 32 -25 36 0 5 -7 15 -15 24 -8 8
-13 19 -9 24 3 5 2 8 -3 7 -4 -1 -37 26 -73 61 -36 35 -91 84 -122 109 -32 25
-58 46 -58 48 0 2 35 38 79 82 154 156 244 309 245 419 1 55 -2 64 -27 87 -45
42 -78 39 -240 -21 -67 -25 -144 -52 -172 -60 -27 -8 -59 -19 -70 -23 -11 -5
-36 -11 -55 -14 -19 -2 -55 -10 -80 -16 -25 -7 -70 -13 -102 -15 -31 -1 -62
-7 -70 -11 -19 -13 -230 -16 -223 -4 3 5 1 15 -5 22 -6 7 -24 29 -41 48 -17
19 -45 55 -62 80 -17 25 -34 47 -38 50 -3 3 -25 34 -48 70 -22 36 -44 70 -49
75 -13 17 -52 86 -52 93 0 4 100 7 223 7 239 0 298 6 366 37 39 17 82 48 67
48 -3 0 2 16 10 36 21 51 6 88 -66 163 -60 61 -105 138 -130 221 -7 25 -17 49
-22 54 -4 6 -8 24 -8 41 0 17 -4 35 -9 40 -6 6 -11 31 -13 57 -2 25 -6 44 -9
42 -4 -2 -10 12 -13 31 -4 20 -20 75 -36 123 -16 48 -28 88 -27 88 3 3 135 16
172 17 17 1 36 7 43 14 7 7 19 13 25 13 7 0 6 -4 -3 -10 -8 -5 -12 -10 -7 -10
4 0 16 5 26 12 15 9 25 9 46 0 31 -14 47 -8 38 15 -4 10 -2 14 4 10 6 -4 29 0
52 8 23 8 42 14 44 14 1 0 15 5 31 11 16 6 36 8 43 6 9 -4 11 -1 7 5 -4 7 -1
10 7 7 8 -3 20 2 28 9 7 8 20 12 28 9 8 -3 12 -2 9 3 -7 10 22 24 34 16 4 -3
13 2 20 10 15 18 34 20 25 3 -4 -7 -1 -6 7 3 15 18 83 52 104 52 8 0 14 4 14
8 0 4 24 22 54 39 69 39 152 113 173 154 9 17 23 37 32 44 9 8 10 11 4 7 -18
-9 -16 5 5 28 9 11 12 17 5 14 -14 -9 -56 60 -47 76 4 7 4 9 0 5 -5 -4 -32 13
-62 37 -29 24 -81 63 -116 86 -81 55 -149 119 -141 132 3 6 1 7 -4 4 -14 -9
-37 19 -28 33 3 5 19 10 34 10 15 0 31 4 37 8 5 4 27 14 49 21 22 7 55 24 73
38 54 40 65 74 66 198 1 61 5 116 10 124 6 10 6 12 -2 7 -7 -4 -12 -1 -12 7 0
20 37 50 51 41 8 -4 10 -3 5 5 -4 6 0 14 11 18 9 4 64 37 120 75 57 37 105 68
108 68 17 0 125 95 138 122 14 29 14 36 1 67 -20 47 -66 106 -172 216 -114
121 -148 158 -149 169 -1 5 -6 12 -11 15 -7 4 0 28 16 61 15 31 35 76 45 100
31 75 34 83 54 130 11 25 34 92 52 150 34 105 39 121 60 173 6 15 11 39 11 52
0 13 5 27 10 30 6 3 10 17 10 31 0 14 4 23 8 20 4 -2 9 14 9 36 1 23 7 46 13
52 5 5 10 27 10 48 0 21 5 38 11 38 5 0 7 5 4 10 -3 6 2 10 12 10 15 0 16 2 3
10 -12 8 -13 14 -1 46 7 20 15 48 16 63 3 24 13 68 37 166 5 22 13 60 18 85 4
25 14 63 20 85 6 22 15 60 19 85 5 25 16 79 25 120 9 41 21 98 26 125 5 28 17
86 26 130 10 44 21 114 25 155 4 41 13 102 19 135 26 135 32 311 36 958 l4
677 -24 0 c-14 0 -27 4 -30 9 -3 5 -16 11 -28 14 -13 3 -59 14 -103 25 -44 11
-120 28 -168 37 -84 16 -126 21 -362 46 -105 11 -289 6 -415 -12 -171 -24
-456 -81 -523 -104 -23 -8 -52 -15 -65 -15 -12 0 -30 -4 -40 -9 -26 -13 -86
-31 -105 -31 -10 0 -25 -4 -35 -9 -9 -4 -51 -19 -92 -31 -41 -13 -114 -38
-162 -56 -49 -19 -90 -34 -93 -34 -5 0 -63 -26 -225 -102 -36 -16 -73 -34 -83
-39 -138 -72 -195 -103 -207 -113 -8 -6 -35 -22 -60 -36 -137 -73 -607 -386
-682 -454 -10 -9 -18 -13 -18 -8 0 4 -5 -1 -11 -10 -5 -10 -14 -18 -19 -18 -5
0 -21 -11 -36 -25 -15 -14 -34 -23 -41 -20 -9 3 -11 0 -7 -6 7 -13 -55 -71
-68 -63 -5 3 -7 2 -6 -3 3 -8 -226 -235 -233 -230 -2 1 -3 0 -2 -2 2 -2 -33
-41 -76 -85 -43 -45 -90 -94 -104 -111 -14 -16 -28 -27 -32 -24 -3 4 0 62 7
130 22 222 16 665 -12 924 -15 130 -30 287 -44 440 -11 123 -36 179 -88 199
-44 18 -76 18 -168 1z m3690 -299 c0 -2 -8 -10 -17 -17 -16 -13 -17 -12 -4 4
13 16 21 21 21 13z m-215 -15 c3 -5 2 -12 -3 -15 -5 -3 -9 1 -9 9 0 17 3 19
12 6z m43 -16 c-3 -3 -9 2 -12 12 -6 14 -5 15 5 6 7 -7 10 -15 7 -18z m326 3
c-3 -4 -9 -8 -15 -8 -5 0 -9 4 -9 8 0 5 7 9 15 9 8 0 12 -4 9 -9z m56 8 c0 -3
-4 -8 -10 -11 -5 -3 -10 -1 -10 4 0 6 5 11 10 11 6 0 10 -2 10 -4z m-107 -21
c-3 -9 -8 -14 -10 -11 -3 3 -2 9 2 15 9 16 15 13 8 -4z m547 -75 c0 -20 -13
-33 -24 -23 -3 3 -1 12 6 20 8 11 7 12 -5 8 -8 -4 -17 -3 -20 2 -3 4 6 9 19 9
17 1 24 -3 24 -16z m-10 -46 c0 -8 -19 -13 -24 -6 -3 5 1 9 9 9 8 0 15 -2 15
-3z m-3040 -598 c0 -2 -8 -10 -17 -17 -16 -13 -17 -12 -4 4 13 16 21 21 21 13z
m-115 -76 c-10 -11 -22 -20 -28 -20 -5 0 1 9 14 20 31 25 37 25 14 0z m-51
-38 c3 -5 -1 -9 -9 -9 -8 0 -12 4 -9 9 3 4 7 8 9 8 2 0 6 -4 9 -8z m-3571
-1157 c-3 -9 -8 -14 -10 -11 -3 3 -2 9 2 15 9 16 15 13 8 -4z m-27 -56 c1 -19
-1 -26 -6 -19 -4 7 -6 20 -5 29 7 32 10 29 11 -10z m29 21 c3 -5 1 -10 -4 -10
-6 0 -11 5 -11 10 0 6 2 10 4 10 3 0 8 -4 11 -10z m6315 -1695 c7 -9 8 -15 2
-15 -5 0 -12 7 -16 15 -3 8 -4 15 -2 15 2 0 9 -7 16 -15z m-14 -27 c4 -7 4
-10 -1 -6 -4 4 -15 2 -24 -5 -14 -11 -14 -10 -2 6 16 20 18 21 27 5z m38 -13
c-7 -16 -24 -21 -24 -6 0 8 7 13 27 20 1 1 0 -6 -3 -14z m-34 -19 c0 -3 -4 -8
-10 -11 -5 -3 -10 -1 -10 4 0 6 5 11 10 11 6 0 10 -2 10 -4z m54 -15 c-5 -3
-10 -14 -12 -23 -2 -12 3 -16 18 -13 21 4 46 -28 35 -45 -4 -6 1 -13 10 -16
12 -5 13 -10 4 -20 -13 -16 -33 -8 -26 11 3 6 -3 25 -14 41 -11 17 -19 23 -19
14 -1 -9 -6 -5 -14 9 -10 19 -11 29 -3 42 6 10 15 15 20 12 5 -3 5 -8 1 -12z
m-39 -30 c3 -5 2 -12 -3 -15 -5 -3 -9 1 -9 9 0 17 3 19 12 6z m49 -57 c4 -9 4
-19 1 -22 -3 -3 -5 0 -5 7 0 7 -4 10 -8 7 -5 -3 -9 1 -9 9 0 20 13 19 21 -1z
m-44 -24 c0 -5 -2 -10 -4 -10 -3 0 -8 5 -11 10 -3 6 -1 10 4 10 6 0 11 -4 11
-10z m41 -17 c13 -16 12 -17 -3 -4 -10 7 -18 15 -18 17 0 8 8 3 21 -13z m74
-3 c3 -5 1 -10 -4 -10 -6 0 -11 5 -11 10 0 6 2 10 4 10 3 0 8 -4 11 -10z m-40
-20 c-27 -12 -43 -12 -25 0 8 5 22 9 30 9 10 0 8 -3 -5 -9z m46 -14 c14 8 11
-2 -4 -14 -10 -8 -13 -6 -14 11 0 12 1 16 4 9 3 -6 9 -10 14 -6z m25 -28 c5
-7 3 -8 -6 -3 -9 5 -11 1 -6 -16 3 -13 3 -18 0 -11 -3 6 -10 10 -14 7 -5 -3
-12 0 -16 6 -4 7 -3 9 3 6 6 -4 13 0 17 8 7 18 12 19 22 3z m-409 -663 c4 -4
2 -5 -4 -1 -7 4 -14 2 -14 -3 -1 -6 -2 -15 -3 -20 0 -5 -5 -13 -10 -18 -5 -4
-6 -3 -2 4 3 6 2 14 -4 18 -9 6 -14 -8 -11 -28 1 -4 -8 -3 -19 3 -23 12 -27
22 -6 14 7 -3 16 2 20 11 3 9 11 13 18 9 7 -5 9 -2 5 8 -6 17 16 19 30 3z
m-103 -57 c-5 -8 -1 -9 12 -4 14 5 16 4 7 -5 -13 -13 -37 -3 -28 12 4 5 8 9
11 9 3 0 2 -5 -2 -12z m-349 -958 c3 -5 1 -10 -4 -10 -6 0 -11 5 -11 10 0 6 2
10 4 10 3 0 8 -4 11 -10z m-698 -1033 c-2 -6 -10 -13 -18 -15 -8 -3 -11 -1 -7
3 4 5 3 14 -3 21 -8 9 -5 11 11 7 11 -3 19 -10 17 -16z m-5227 -1082 c0 -7
-30 -13 -34 -7 -3 4 4 9 15 9 10 1 19 0 19 -2z m63 -32 c-4 -11 -3 -14 6 -9 7
5 10 2 9 -6 -2 -7 4 -12 14 -10 9 1 19 -2 23 -8 5 -8 -22 -8 -45 0 -3 2 -8 2
-11 2 -5 -1 -5 36 0 46 5 10 9 -2 4 -15z m-23 -13 c0 -5 -7 -7 -15 -4 -8 4
-15 8 -15 10 0 2 7 4 15 4 8 0 15 -4 15 -10z m4920 -1780 c0 -5 -5 -10 -11
-10 -5 0 -7 5 -4 10 3 6 8 10 11 10 2 0 4 -4 4 -10z m-1446 -46 c3 -8 2 -12
-4 -9 -6 3 -10 10 -10 16 0 14 7 11 14 -7z m1803 1 c0 -8 -4 -12 -9 -9 -5 3
-6 10 -3 15 9 13 12 11 12 -6z"/>
<path d="M9100 5831 c0 -6 4 -13 10 -16 6 -3 7 1 4 9 -7 18 -14 21 -14 7z"/>
<path d="M1429 5752 c-13 -15 -12 -16 3 -4 13 10 17 10 21 0 4 -9 6 -9 6 -1 2
20 -16 24 -30 5z"/>
<path d="M1390 5749 c0 -5 5 -7 10 -4 6 3 10 8 10 11 0 2 -4 4 -10 4 -5 0 -10
-5 -10 -11z"/>
<path d="M8375 4010 c-3 -5 -1 -10 4 -10 6 0 11 5 11 10 0 6 -2 10 -4 10 -3 0
-8 -4 -11 -10z"/>
<path d="M8295 3970 c-3 -5 -1 -10 4 -10 6 0 11 5 11 10 0 6 -2 10 -4 10 -3 0
-8 -4 -11 -10z"/>
</g>
</svg>
